<svg width="1919" height="879" viewBox="0 0 1919 879" fill="none" xmlns="http://www.w3.org/2000/svg">
<g clip-path="url(#clip0_1010_137)">
<line x1="980.7" y1="5" x2="980.7" y2="853" stroke="white" stroke-opacity="0.2" stroke-width="1.4"/>
<line x1="23" y1="139.3" x2="1884" y2="139.3" stroke="white" stroke-opacity="0.2" stroke-width="1.4"/>
<line x1="23" y1="279.3" x2="1884" y2="279.3" stroke="white" stroke-opacity="0.2" stroke-width="1.4"/>
<line x1="23" y1="419.3" x2="1884" y2="419.3" stroke="white" stroke-opacity="0.2" stroke-width="1.4"/>
<line x1="23" y1="559.3" x2="1884" y2="559.3" stroke="white" stroke-opacity="0.2" stroke-width="1.4"/>
<line x1="212" y1="699.3" x2="1776" y2="699.3" stroke="white" stroke-opacity="0.2" stroke-width="1.4"/>
<line x1="840.7" y1="5" x2="840.7" y2="853" stroke="white" stroke-opacity="0.2" stroke-width="1.4"/>
<line x1="700.7" y1="5" x2="700.7" y2="853" stroke="white" stroke-opacity="0.2" stroke-width="1.4"/>
<line x1="560.7" y1="5" x2="560.7" y2="809" stroke="white" stroke-opacity="0.2" stroke-width="1.4"/>
<line x1="420.7" y1="-3" x2="420.7" y2="786" stroke="white" stroke-opacity="0.2" stroke-width="1.4"/>
<line x1="280.7" y1="8" x2="280.7" y2="736" stroke="white" stroke-opacity="0.2" stroke-width="1.4"/>
<line x1="140.7" y1="3.0598e-08" x2="140.7" y2="667" stroke="white" stroke-opacity="0.2" stroke-width="1.4"/>
<line y1="-0.7" x2="848" y2="-0.7" transform="matrix(4.37114e-08 1 1 -4.37114e-08 1120 5)" stroke="white" stroke-opacity="0.2" stroke-width="1.4"/>
<line y1="-0.7" x2="804" y2="-0.7" transform="matrix(4.37114e-08 1 1 -4.37114e-08 1400 5)" stroke="white" stroke-opacity="0.2" stroke-width="1.4"/>
<line y1="-0.7" x2="789" y2="-0.7" transform="matrix(4.37114e-08 1 1 -4.37114e-08 1540 -3)" stroke="white" stroke-opacity="0.2" stroke-width="1.4"/>
<line y1="-0.7" x2="832" y2="-0.7" transform="matrix(4.37114e-08 1 1 -4.37114e-08 1260 8)" stroke="white" stroke-opacity="0.2" stroke-width="1.4"/>
<line y1="-0.7" x2="728" y2="-0.7" transform="matrix(4.37114e-08 1 1 -4.37114e-08 1680 8)" stroke="white" stroke-opacity="0.2" stroke-width="1.4"/>
<line y1="-0.7" x2="667" y2="-0.7" transform="matrix(4.37114e-08 1 1 -4.37114e-08 1820 0)" stroke="white" stroke-opacity="0.2" stroke-width="1.4"/>
</g>
<defs>
<clipPath id="clip0_1010_137">
<rect width="1919" height="879" fill="white"/>
</clipPath>
</defs>
</svg>
